<svg xmlns="http://www.w3.org/2000/svg" version="1.1" xmlns:xlink="http://www.w3.org/1999/xlink" width="1000" height="1000"><style>
    #light-icon {
      display: inline;
    }
    #dark-icon {
      display: none;
    }

    @media (prefers-color-scheme: dark) {
      #light-icon {
        display: none;
      }
      #dark-icon {
        display: inline;
      }
    }
  </style><g id="light-icon"><svg xmlns="http://www.w3.org/2000/svg" version="1.1" xmlns:xlink="http://www.w3.org/1999/xlink" width="1000" height="1000"><g><g transform="matrix(0.9259259259259259,0,0,0.9259259259259259,0,125)"><svg xmlns="http://www.w3.org/2000/svg" version="1.1" xmlns:xlink="http://www.w3.org/1999/xlink" width="1080" height="810"><svg width="1080" height="810" viewBox="-540 -405 1080 810" xmlns="http://www.w3.org/2000/svg">
  <style>
#graintouch {
--version:1; --tempo:120; --musicTime:0; --gridEnabled:0; --imageAlpha:1.00; --outline:1; --lineWidth:41.16; --pressureEnabled:0; --outlineEraser:1; --lineWidthEraser:10.00; --pressureEraser:1; --useMisreg:0;
}

#t0 {
--visible:1; --color:#000000; --timeOffset:0; --speed:12; --bookmarkIndex:-1; --latched:0; --playMode:0; --masked:0; --blendMode:0; --fillMode:0; --pressureEnabled:0; --misRegX:0; --misRegY:0;
opacity:1; fill:#000000; stroke-opacity:0; fill-opacity:1; mix-blend-mode:multiply; }
</style>
  <g id="w0" transform="translate(26.08 53.09) scale(1.04 1.04) rotate(-357.75)" class="weave">
    <g id="t0" class="thread">
      <g id="f0" style="--index:0; opacity:1;" class="frame">
        <path d="M-234.65,268.07L-228.48,262.92L-224.76,255.81L-222.26,247.31L-221.48,243.08L-220.48,230.08L-220.42,228.50L-220.42,189.00L-220.42,188.66L-221.42,127.66L-221.43,127.45L-223.43,52.45L-223.45,52.00L-225.45,11.00L-225.48,10.48L-227.82,-21.20L-222.27,-16.20L-219.31,-13.98L-189.30,4.52L-188.67,4.89L-166.67,17.39L-165.56,17.98L-140.06,30.48L-138.09,31.32L-108.09,42.32L-107.32,42.59L-77.02,52.36L-49.47,63.48L-24.47,73.98L-4.60,82.96L11.57,91.30L12.71,91.84L25.21,97.34L27.99,98.33L36.99,100.83L44.55,101.48L49.55,100.98L56.70,98.91L62.64,94.44L66.61,88.14L67.61,85.64L69.03,79.39L68.47,73.01L67.47,69.01L66.88,67.08L64.38,60.08L62.40,56.01L56.40,46.51L55.94,45.82L45.94,31.32L45.52,30.72L31.02,11.22L30.54,10.60L10.04,-14.90L9.81,-15.18L-15.04,-45.00L-69.52,-114.34L-82.63,-132.70L-40.24,-165.96L-7.16,-188.97L5.94,-196.20L15.80,-200.94L22.32,-202.42L26.00,-202.42L32.24,-199.55L44.73,-190.81L61.29,-176.10L84.79,-152.11L112.56,-119.96L142.70,-80.58L176.39,-29.80L207.46,25.52L231.34,84.29L244.92,140.92L244.92,185.03L234.74,210.47L216.66,222.63L185.19,226.26L140.55,220.34L85.46,202.62L26.74,179.92L-31.25,154.36L-85.50,127.99L-93.27,125.96L-101.23,127.05L-108.16,131.10L-113.01,137.50L-115.05,145.27L-113.95,153.23L-109.90,160.16L-103.50,165.01L-49.00,191.51L-48.30,191.84L10.70,217.84L11.58,218.20L71.08,241.20L72.20,241.59L129.70,260.10L133.29,260.91L182.30,267.41L187.36,267.45L226.36,262.95L231.13,261.81L235.49,259.58L262.99,241.08L267.51,236.94L270.61,231.65L284.61,196.65L286.08,189.00L286.08,138.50L285.52,133.70L271.02,73.20L270.07,70.25L245.07,8.75L243.95,6.42L211.95,-50.58L211.15,-51.88L176.65,-103.88L175.85,-105.01L144.84,-145.51L144.08,-146.45L115.58,-179.45L114.70,-180.41L90.20,-205.41L89.17,-206.38L71.17,-222.39L69.30,-223.86L54.30,-234.36L51.08,-236.21L39.08,-241.71L34.89,-243.11L30.50,-243.58L20.00,-243.58L15.44,-243.07L4.44,-240.57L0.09,-239.06L-12.41,-233.06L-13.44,-232.52L-27.94,-224.52L-29.75,-223.40L-64.25,-199.40L-65.20,-198.70L-106.32,-166.43L-117.28,-182.28L-190.28,-293.78L-190.72,-294.42L-215.22,-328.92L-216.07,-330.04L-225.07,-341.04L-225.92,-342.01L-232.42,-349.01L-238.30,-353.41L-243.30,-355.91L-248.38,-357.67L-253.74,-358.05L-259.01,-357.03L-262.01,-356.03L-267.81,-353.00L-272.36,-348.30L-275.22,-342.42L-276.72,-337.42L-277.41,-334.15L-282.41,-295.65L-282.53,-294.47L-284.03,-273.47L-284.08,-271.64L-283.58,-243.14L-283.57,-242.72L-281.07,-177.22L-281.05,-176.88L-279.05,-140.38L-279.03,-140.08L-276.53,-104.08L-276.50,-103.64L-269.53,-26.98L-266.53,13.52L-264.58,53.55L-262.58,128.55L-262.58,128.34L-261.58,189.34L-261.58,227.70L-262.35,237.73L-264.25,244.19L-264.97,252.19L-262.57,259.86L-257.42,266.02L-250.31,269.75L-242.31,270.47M-235.51,-107.36L-235.47,-106.93L-237.97,-142.93L-239.95,-179.13L-239.94,-178.79L-242.44,-244.29L-242.42,-243.86L-242.90,-271.46L-241.51,-290.94L-241.08,-294.25L-224.54,-270.96L-151.72,-159.73L-151.43,-159.30L-139.46,-141.98L-141.40,-140.63L-159.20,-129.39L-205.94,-105.29L-207.09,-104.65L-219.59,-97.15L-223.56,-94.05L-233.06,-84.55L-233.39,-84.09M-8.02,36.25L-8.53,36.02L-33.53,25.52L-33.80,25.41L-62.30,13.91L-63.68,13.41L-94.48,3.47L-122.86,-6.93L-146.91,-18.72L-168.15,-30.79L-196.10,-48.03L-202.00,-53.34L-202.99,-55.23L-201.72,-57.67L-196.26,-63.14L-186.40,-69.05L-139.57,-93.21L-138.01,-94.10L-119.01,-106.10L-118.29,-106.58L-115.79,-108.30L-102.75,-90.04L-102.18,-89.29L-47.18,-19.28L-46.81,-18.82L-22.04,10.90L-1.79,36.08L1.54,40.57"></path>
      </g>
      <linearGradient id="g0" gradientUnits="userSpaceOnUse" x1="-1000" x2="1000">
        <stop offset="0%" stop-color="#ffffff"></stop>
        <stop offset="100%" stop-color="#000000"></stop>
      </linearGradient>
    </g>
  </g>
</svg></svg></g></g></svg></g><g id="dark-icon"><svg xmlns="http://www.w3.org/2000/svg" version="1.1" xmlns:xlink="http://www.w3.org/1999/xlink" width="1000" height="1000"><g clip-path="url(#SvgjsClipPath1230)"><rect width="1000" height="1000" fill="#cccccc"></rect><g transform="matrix(0.9259259259259259,0,0,0.9259259259259259,0,125)"><svg xmlns="http://www.w3.org/2000/svg" version="1.1" xmlns:xlink="http://www.w3.org/1999/xlink" width="1080" height="810"><svg width="1080" height="810" viewBox="-540 -405 1080 810" xmlns="http://www.w3.org/2000/svg">
  <style>
#graintouch {
--version:1; --tempo:120; --musicTime:0; --gridEnabled:0; --imageAlpha:1.00; --outline:1; --lineWidth:41.16; --pressureEnabled:0; --outlineEraser:1; --lineWidthEraser:10.00; --pressureEraser:1; --useMisreg:0;
}

#t0 {
--visible:1; --color:transparent; --timeOffset:0; --speed:12; --bookmarkIndex:-1; --latched:0; --playMode:0; --masked:0; --blendMode:0; --fillMode:0; --pressureEnabled:0; --misRegX:0; --misRegY:0;
opacity:1; fill:#000000; stroke-opacity:1; fill-opacity:1; mix-blend-mode:multiply; }
</style>
  <g id="w0" transform="translate(26.08 53.09) scale(1.04 1.04) rotate(-357.75)" class="weave">
    <g id="t0" class="thread">
      <g id="f0" fill="#ddd" style="--index:0; opacity:1;" class="frame">
        <path d="M-234.65,268.07L-228.48,262.92L-224.76,255.81L-222.26,247.31L-221.48,243.08L-220.48,230.08L-220.42,228.50L-220.42,189.00L-220.42,188.66L-221.42,127.66L-221.43,127.45L-223.43,52.45L-223.45,52.00L-225.45,11.00L-225.48,10.48L-227.82,-21.20L-222.27,-16.20L-219.31,-13.98L-189.30,4.52L-188.67,4.89L-166.67,17.39L-165.56,17.98L-140.06,30.48L-138.09,31.32L-108.09,42.32L-107.32,42.59L-77.02,52.36L-49.47,63.48L-24.47,73.98L-4.60,82.96L11.57,91.30L12.71,91.84L25.21,97.34L27.99,98.33L36.99,100.83L44.55,101.48L49.55,100.98L56.70,98.91L62.64,94.44L66.61,88.14L67.61,85.64L69.03,79.39L68.47,73.01L67.47,69.01L66.88,67.08L64.38,60.08L62.40,56.01L56.40,46.51L55.94,45.82L45.94,31.32L45.52,30.72L31.02,11.22L30.54,10.60L10.04,-14.90L9.81,-15.18L-15.04,-45.00L-69.52,-114.34L-82.63,-132.70L-40.24,-165.96L-7.16,-188.97L5.94,-196.20L15.80,-200.94L22.32,-202.42L26.00,-202.42L32.24,-199.55L44.73,-190.81L61.29,-176.10L84.79,-152.11L112.56,-119.96L142.70,-80.58L176.39,-29.80L207.46,25.52L231.34,84.29L244.92,140.92L244.92,185.03L234.74,210.47L216.66,222.63L185.19,226.26L140.55,220.34L85.46,202.62L26.74,179.92L-31.25,154.36L-85.50,127.99L-93.27,125.96L-101.23,127.05L-108.16,131.10L-113.01,137.50L-115.05,145.27L-113.95,153.23L-109.90,160.16L-103.50,165.01L-49.00,191.51L-48.30,191.84L10.70,217.84L11.58,218.20L71.08,241.20L72.20,241.59L129.70,260.10L133.29,260.91L182.30,267.41L187.36,267.45L226.36,262.95L231.13,261.81L235.49,259.58L262.99,241.08L267.51,236.94L270.61,231.65L284.61,196.65L286.08,189.00L286.08,138.50L285.52,133.70L271.02,73.20L270.07,70.25L245.07,8.75L243.95,6.42L211.95,-50.58L211.15,-51.88L176.65,-103.88L175.85,-105.01L144.84,-145.51L144.08,-146.45L115.58,-179.45L114.70,-180.41L90.20,-205.41L89.17,-206.38L71.17,-222.39L69.30,-223.86L54.30,-234.36L51.08,-236.21L39.08,-241.71L34.89,-243.11L30.50,-243.58L20.00,-243.58L15.44,-243.07L4.44,-240.57L0.09,-239.06L-12.41,-233.06L-13.44,-232.52L-27.94,-224.52L-29.75,-223.40L-64.25,-199.40L-65.20,-198.70L-106.32,-166.43L-117.28,-182.28L-190.28,-293.78L-190.72,-294.42L-215.22,-328.92L-216.07,-330.04L-225.07,-341.04L-225.92,-342.01L-232.42,-349.01L-238.30,-353.41L-243.30,-355.91L-248.38,-357.67L-253.74,-358.05L-259.01,-357.03L-262.01,-356.03L-267.81,-353.00L-272.36,-348.30L-275.22,-342.42L-276.72,-337.42L-277.41,-334.15L-282.41,-295.65L-282.53,-294.47L-284.03,-273.47L-284.08,-271.64L-283.58,-243.14L-283.57,-242.72L-281.07,-177.22L-281.05,-176.88L-279.05,-140.38L-279.03,-140.08L-276.53,-104.08L-276.50,-103.64L-269.53,-26.98L-266.53,13.52L-264.58,53.55L-262.58,128.55L-262.58,128.34L-261.58,189.34L-261.58,227.70L-262.35,237.73L-264.25,244.19L-264.97,252.19L-262.57,259.86L-257.42,266.02L-250.31,269.75L-242.31,270.47M-235.51,-107.36L-235.47,-106.93L-237.97,-142.93L-239.95,-179.13L-239.94,-178.79L-242.44,-244.29L-242.42,-243.86L-242.90,-271.46L-241.51,-290.94L-241.08,-294.25L-224.54,-270.96L-151.72,-159.73L-151.43,-159.30L-139.46,-141.98L-141.40,-140.63L-159.20,-129.39L-205.94,-105.29L-207.09,-104.65L-219.59,-97.15L-223.56,-94.05L-233.06,-84.55L-233.39,-84.09M-8.02,36.25L-8.53,36.02L-33.53,25.52L-33.80,25.41L-62.30,13.91L-63.68,13.41L-94.48,3.47L-122.86,-6.93L-146.91,-18.72L-168.15,-30.79L-196.10,-48.03L-202.00,-53.34L-202.99,-55.23L-201.72,-57.67L-196.26,-63.14L-186.40,-69.05L-139.57,-93.21L-138.01,-94.10L-119.01,-106.10L-118.29,-106.58L-115.79,-108.30L-102.75,-90.04L-102.18,-89.29L-47.18,-19.28L-46.81,-18.82L-22.04,10.90L-1.79,36.08L1.54,40.57"></path>
      </g>
    </g>
  </g>
</svg></svg></g></g><defs><clipPath id="SvgjsClipPath1230"><rect width="1000" height="1000" x="0" y="0" rx="250" ry="250"></rect></clipPath></defs></svg></g></svg>